<?xml version="1.0" encoding="UTF-8"?>

<svg xmlns="http://www.w3.org/2000/svg" version="1.1" width="381px" height="433px" style="shape-rendering:geometricPrecision; text-rendering:geometricPrecision; image-rendering:optimizeQuality; fill-rule:evenodd; clip-rule:evenodd" xmlns:xlink="http://www.w3.org/1999/xlink">
<g><path style="opacity:0.999" fill="#04b845" d="M 335.5,80.5 C 337.537,81.8465 339.537,83.1798 341.5,84.5C 340.761,84.369 340.094,84.5357 339.5,85C 349.331,90.4144 358.998,96.0811 368.5,102C 373.473,106.779 376.139,112.612 376.5,119.5C 377.663,183.096 377.829,246.763 377,310.5C 376.399,320.218 371.899,327.385 363.5,332C 364.094,332.464 364.761,332.631 365.5,332.5C 359.366,336.404 353.032,340.071 346.5,343.5C 345.279,342.535 343.946,342.702 342.5,344C 328.998,352.252 315.331,360.252 301.5,368C 302.094,368.464 302.761,368.631 303.5,368.5C 302.486,369.674 301.153,370.34 299.5,370.5C 299.103,369.475 298.437,369.308 297.5,370C 281.5,379.333 265.5,388.667 249.5,398C 250.094,398.464 250.761,398.631 251.5,398.5C 246.712,401.542 241.712,404.209 236.5,406.5C 223.771,413.034 211.104,419.868 198.5,427C 195.313,427.889 192.147,428.722 189,429.5C 185.853,428.722 182.687,427.889 179.5,427C 167.744,420.9 156.244,414.4 145,407.5C 144.536,408.094 144.369,408.761 144.5,409.5C 143.128,408.488 141.795,407.488 140.5,406.5C 141.239,406.631 141.906,406.464 142.5,406C 132.167,400.167 121.833,394.333 111.5,388.5C 110.893,388.624 110.56,388.957 110.5,389.5C 109.29,389.068 108.29,388.401 107.5,387.5C 108.239,387.631 108.906,387.464 109.5,387C 86.5,373.833 63.5,360.667 40.5,347.5C 39.8933,347.624 39.56,347.957 39.5,348.5C 38.2905,348.068 37.2905,347.401 36.5,346.5C 37.2389,346.631 37.9056,346.464 38.5,346C 29.0847,340.877 19.9181,335.377 11,329.5C 10.5357,330.094 10.369,330.761 10.5,331.5C 9.59872,330.71 8.93205,329.71 8.5,328.5C 2.85517,321.566 0.1885,313.566 0.5,304.5C 0.181206,241.477 0.514539,178.477 1.5,115.5C 4.14764,108.022 8.8143,102.189 15.5,98C 68.6636,67.5859 121.664,36.9192 174.5,6C 183.354,0.817929 192.354,0.484596 201.5,5C 245.918,30.9596 290.418,56.7929 335,82.5C 335.464,81.9056 335.631,81.2389 335.5,80.5 Z M 277.5,115.5 C 277.5,149.167 277.5,182.833 277.5,216.5C 266.78,222.947 255.946,229.28 245,235.5C 244.667,201.167 244.333,166.833 244,132.5C 221.586,119.376 199.086,106.376 176.5,93.5C 174.337,91.9172 172.004,90.5839 169.5,89.5C 165.232,86.6905 160.898,83.8572 156.5,81C 167.073,74.4608 177.907,68.2941 189,62.5C 217.861,78.348 246.361,94.848 274.5,112C 275.448,112.483 276.448,112.649 277.5,112.5C 277.5,113.5 277.5,114.5 277.5,115.5 Z M 169.5,101.5 C 169.842,102.338 170.508,102.672 171.5,102.5C 191.655,115.171 212.155,127.505 233,139.5C 233.667,152.167 233.667,164.833 233,177.5C 203.814,160.241 174.481,143.241 145,126.5C 115.467,143.353 85.9665,160.353 56.5,177.5C 55.1787,164.604 55.1787,151.771 56.5,139C 85.7399,121.794 115.24,104.961 145,88.5C 153.284,92.7239 161.451,97.0572 169.5,101.5 Z M 315.5,135.5 C 317.481,137.303 319.648,138.97 322,140.5C 322.5,174.498 322.667,208.498 322.5,242.5C 292.79,260.042 262.957,277.376 233,294.5C 222.133,287.665 210.966,281.165 199.5,275C 228.899,258.46 258.233,241.626 287.5,224.5C 288.167,190.167 288.833,155.833 289.5,121.5C 297.945,126.72 306.612,131.387 315.5,135.5 Z M 58.5,295.5 C 57.8783,294.373 57.045,293.373 56,292.5C 55.3333,258.5 55.3333,224.5 56,190.5C 58.167,189.512 60.0003,188.179 61.5,186.5C 89.2247,170.468 117.225,154.802 145.5,139.5C 156.325,145.412 166.992,151.578 177.5,158C 148.119,174.775 118.952,191.942 90,209.5C 89.8332,243.505 89.3332,277.505 88.5,311.5C 79.5822,307.692 71.2488,302.859 63.5,297C 61.8455,296.392 60.1789,295.892 58.5,295.5 Z M 195.5,335.5 C 198.546,337.858 201.879,339.858 205.5,341.5C 210.939,344.728 216.273,348.228 221.5,352C 210.837,358.267 200.171,364.433 189.5,370.5C 176.842,363.515 164.176,356.515 151.5,349.5C 150.341,347.75 148.674,346.75 146.5,346.5C 131.34,337.601 116.173,328.601 101,319.5C 100.333,285.167 100.333,250.833 101,216.5C 111.502,209.915 122.168,203.581 133,197.5C 133.167,231.838 133.667,266.172 134.5,300.5C 154.725,312.443 175.058,324.11 195.5,335.5 Z M 209.5,331.5 C 206.001,329.25 202.335,327.25 198.5,325.5C 180.377,314.939 162.21,304.272 144,293.5C 143.167,280.82 143.334,268.154 144.5,255.5C 173.841,272.651 203.341,289.651 233,306.5C 262.619,289.716 292.119,272.716 321.5,255.5C 322.821,268.396 322.821,281.229 321.5,294C 291.886,311.054 262.386,328.221 233,345.5C 225.254,340.709 217.421,336.043 209.5,331.5 Z"/></g>
<g><path style="opacity:0.922" fill="#47cb76" d="M 335.5,80.5 C 335.631,81.2389 335.464,81.9056 335,82.5C 290.418,56.7929 245.918,30.9596 201.5,5C 192.354,0.484596 183.354,0.817929 174.5,6C 121.664,36.9192 68.6636,67.5859 15.5,98C 8.8143,102.189 4.14764,108.022 1.5,115.5C 1.16667,115.5 0.833333,115.5 0.5,115.5C 2.475,106.736 7.475,100.236 15.5,96C 68.4248,66.0662 121.092,35.7329 173.5,5C 185.528,-1.33193 197.195,-0.665267 208.5,7C 250.92,31.5371 293.254,56.0371 335.5,80.5 Z"/></g>
<g><path style="opacity:1" fill="#1bb151" d="M 268.5,56.5 C 270.167,56.5 271.833,56.5 273.5,56.5C 274.737,61.4754 276.404,66.3088 278.5,71C 277.109,72.02 275.609,72.8534 274,73.5C 271.66,67.9806 269.827,62.3139 268.5,56.5 Z"/></g>
<g><path style="opacity:1" fill="#1bb151" d="M 258.5,60.5 C 260.582,60.472 262.416,61.1387 264,62.5C 265.163,66.1618 266.33,69.8284 267.5,73.5C 267.392,74.4419 267.059,75.2753 266.5,76C 262.823,78.3101 258.989,78.8101 255,77.5C 252.801,71.6412 254.968,68.1412 261.5,67C 258.823,65.152 256.156,65.3187 253.5,67.5C 252.585,66.6721 251.919,65.6721 251.5,64.5C 253.765,62.8726 256.099,61.5392 258.5,60.5 Z"/></g>
<g><path style="opacity:1" fill="#1bb152" d="M 236.5,68.5 C 238.665,68.1159 240.332,68.7826 241.5,70.5C 239.833,71.8333 238.167,73.1667 236.5,74.5C 237.74,78.0558 239.073,81.5558 240.5,85C 239.109,86.02 237.609,86.8534 236,87.5C 234.167,82.5 232.333,77.5 230.5,72.5C 232.565,71.1433 234.565,69.81 236.5,68.5 Z"/></g>
<g><path style="opacity:1" fill="#1bb252" d="M 169.5,89.5 C 172.004,90.5839 174.337,91.9172 176.5,93.5C 177.779,97.6721 179.446,101.672 181.5,105.5C 181,105.833 180.5,106.167 180,106.5C 177.315,104.74 174.482,103.406 171.5,102.5C 170.508,102.672 169.842,102.338 169.5,101.5C 169.937,99.9256 170.937,98.7589 172.5,98C 170.432,97.3131 168.432,97.4798 166.5,98.5C 165.328,98.0814 164.328,97.4147 163.5,96.5C 166.167,95.1667 168.833,93.8333 171.5,92.5C 170.388,91.7348 169.721,90.7348 169.5,89.5 Z"/></g>
<g><path style="opacity:0.345" fill="#50cc7d" d="M 341.5,84.5 C 350.799,89.1493 359.799,94.316 368.5,100C 374.034,104.568 377.368,110.401 378.5,117.5C 377.833,118.167 377.167,118.833 376.5,119.5C 376.139,112.612 373.473,106.779 368.5,102C 358.998,96.0811 349.331,90.4144 339.5,85C 340.094,84.5357 340.761,84.369 341.5,84.5 Z"/></g>
<g><path style="opacity:0.893" fill="#00b536" d="M 277.5,216.5 C 277.5,182.833 277.5,149.167 277.5,115.5C 278.222,115.082 278.722,114.416 279,113.5C 279.167,130.667 279.333,147.833 279.5,165C 279.5,182.513 278.833,199.68 277.5,216.5 Z"/></g>
<g><path style="opacity:0.904" fill="#00b132" d="M 315.5,135.5 C 318.343,136.172 320.843,137.505 323,139.5C 323.831,174.002 323.664,208.336 322.5,242.5C 322.667,208.498 322.5,174.498 322,140.5C 319.648,138.97 317.481,137.303 315.5,135.5 Z"/></g>
<g><path style="opacity:0.588" fill="#8fdfac" d="M -0.5,115.5 C -0.166667,115.5 0.166667,115.5 0.5,115.5C 0.833333,115.5 1.16667,115.5 1.5,115.5C 0.514539,178.477 0.181206,241.477 0.5,304.5C 0.166667,304.5 -0.166667,304.5 -0.5,304.5C -0.5,241.5 -0.5,178.5 -0.5,115.5 Z"/></g>
<g><path style="opacity:0.824" fill="#00ac26" d="M 61.5,186.5 C 60.0003,188.179 58.167,189.512 56,190.5C 55.3333,224.5 55.3333,258.5 56,292.5C 57.045,293.373 57.8783,294.373 58.5,295.5C 56.9826,295.489 55.8159,294.823 55,293.5C 54.3333,258.833 54.3333,224.167 55,189.5C 56.9935,188.086 59.1602,187.086 61.5,186.5 Z"/></g>
<g><path style="opacity:0.251" fill="#34c568" d="M 378.5,117.5 C 378.667,183.501 378.5,249.501 378,315.5C 376.25,323.021 372.084,328.688 365.5,332.5C 364.761,332.631 364.094,332.464 363.5,332C 371.899,327.385 376.399,320.218 377,310.5C 377.829,246.763 377.663,183.096 376.5,119.5C 377.167,118.833 377.833,118.167 378.5,117.5 Z"/></g>
<g><path style="opacity:1" fill="#1ab151" d="M 347.5,270.5 C 348.833,270.5 350.167,270.5 351.5,270.5C 352.737,275.475 354.404,280.309 356.5,285C 355.335,286.084 354.002,286.917 352.5,287.5C 349.346,282.063 347.68,276.396 347.5,270.5 Z"/></g>
<g><path style="opacity:1" fill="#1bb151" d="M 337.5,274.5 C 338.721,275.028 339.887,275.695 341,276.5C 343.67,280.803 344.836,285.303 344.5,290C 341.119,292.245 337.452,292.912 333.5,292C 331.813,290.087 331.313,287.92 332,285.5C 333.896,283.47 336.063,281.803 338.5,280.5C 336.041,279.357 333.707,279.69 331.5,281.5C 330.585,280.672 329.919,279.672 329.5,278.5C 331.991,276.588 334.658,275.254 337.5,274.5 Z"/></g>
<g><path style="opacity:0.686" fill="#48cb76" d="M -0.5,304.5 C -0.166667,304.5 0.166667,304.5 0.5,304.5C 0.1885,313.566 2.85517,321.566 8.5,328.5C 6.25978,327.432 4.42645,325.766 3,323.5C 1.9066,320.691 0.739932,318.024 -0.5,315.5C -0.5,311.833 -0.5,308.167 -0.5,304.5 Z"/></g>
<g><path style="opacity:0.985" fill="#17b34e" d="M 198.5,325.5 C 202.335,327.25 206.001,329.25 209.5,331.5C 209.703,333.044 210.37,334.378 211.5,335.5C 210.754,336.736 210.421,338.07 210.5,339.5C 208.486,339.392 206.82,340.058 205.5,341.5C 201.879,339.858 198.546,337.858 195.5,335.5C 194.858,331.525 195.858,328.192 198.5,325.5 Z"/></g>
<g><path style="opacity:0.247" fill="#3dc66e" d="M 36.5,346.5 C 27.8333,341.5 19.1667,336.5 10.5,331.5C 10.369,330.761 10.5357,330.094 11,329.5C 19.9181,335.377 29.0847,340.877 38.5,346C 37.9056,346.464 37.2389,346.631 36.5,346.5 Z"/></g>
<g><path style="opacity:1" fill="#1bb051" d="M 146.5,346.5 C 148.674,346.75 150.341,347.75 151.5,349.5C 151.062,349.435 150.728,349.601 150.5,350C 151.944,352.838 153.944,355.171 156.5,357C 156.355,357.772 156.022,358.439 155.5,359C 153.833,359.667 152.167,359.667 150.5,359C 147.38,355.152 146.047,350.985 146.5,346.5 Z"/></g>
<g><path style="opacity:0.529" fill="#38c66d" d="M 346.5,343.5 C 332.363,352.072 318.029,360.405 303.5,368.5C 302.761,368.631 302.094,368.464 301.5,368C 315.331,360.252 328.998,352.252 342.5,344C 343.946,342.702 345.279,342.535 346.5,343.5 Z"/></g>
<g><path style="opacity:0.063" fill="#36c66a" d="M 39.5,348.5 C 39.56,347.957 39.8933,347.624 40.5,347.5C 63.5,360.667 86.5,373.833 109.5,387C 108.906,387.464 108.239,387.631 107.5,387.5C 84.7691,374.472 62.1025,361.472 39.5,348.5 Z"/></g>
<g><path style="opacity:0.161" fill="#3cc76e" d="M 299.5,370.5 C 283.503,379.832 267.503,389.165 251.5,398.5C 250.761,398.631 250.094,398.464 249.5,398C 265.5,388.667 281.5,379.333 297.5,370C 298.437,369.308 299.103,369.475 299.5,370.5 Z"/></g>
<g><path style="opacity:0.306" fill="#33c568" d="M 110.5,389.5 C 110.56,388.957 110.893,388.624 111.5,388.5C 121.833,394.333 132.167,400.167 142.5,406C 141.906,406.464 141.239,406.631 140.5,406.5C 130.527,400.845 120.527,395.179 110.5,389.5 Z"/></g>
<g><path style="opacity:0.518" fill="#39c86b" d="M 236.5,406.5 C 226.731,412.892 216.731,419.059 206.5,425C 197.327,430.817 187.661,431.817 177.5,428C 166.505,421.835 155.505,415.669 144.5,409.5C 144.369,408.761 144.536,408.094 145,407.5C 156.244,414.4 167.744,420.9 179.5,427C 182.687,427.889 185.853,428.722 189,429.5C 192.147,428.722 195.313,427.889 198.5,427C 211.104,419.868 223.771,413.034 236.5,406.5 Z"/></g>
</svg>
